<svg width="24" height="24" viewBox="0 0 24 24" fill="none" xmlns="http://www.w3.org/2000/svg">
<g clip-path="url(#clip0_1_423)">
<path d="M8.28961 20.2515C15.8368 20.2515 19.9648 13.9987 19.9648 8.57634C19.9648 8.39868 19.9648 8.22189 19.9528 8.04509C20.7558 7.46448 21.449 6.74555 22 5.92196C21.2511 6.25381 20.4567 6.47144 19.6432 6.56759C20.4998 6.05479 21.1409 5.24825 21.4472 4.29806C20.6417 4.776 19.7605 5.11283 18.8416 5.294C18.2229 4.63616 17.4046 4.20056 16.5135 4.05461C15.6223 3.90866 14.7078 4.06049 13.9116 4.48661C13.1154 4.91272 12.4819 5.58937 12.109 6.41184C11.7361 7.23431 11.6447 8.15675 11.8488 9.03642C10.2174 8.95462 8.62146 8.53066 7.16453 7.79206C5.70761 7.05345 4.42229 6.01672 3.39203 4.74915C2.8673 5.65247 2.70658 6.72182 2.94259 7.73947C3.17859 8.75713 3.79358 9.64658 4.66234 10.2267C4.00936 10.2074 3.37061 10.0312 2.8 9.71314V9.76509C2.80025 10.7125 3.1282 11.6306 3.72822 12.3638C4.32825 13.0969 5.1634 13.5999 6.09203 13.7875C5.48792 13.9523 4.85409 13.9763 4.23922 13.8579C4.50142 14.6732 5.0119 15.3862 5.69927 15.8972C6.38663 16.4081 7.2165 16.6914 8.07281 16.7075C6.6198 17.8495 4.82485 18.4694 2.9768 18.4675C2.65032 18.4669 2.32416 18.4471 2 18.4083C3.87651 19.6125 6.05994 20.2513 8.28961 20.2483" fill="#1DA1F2"/>
</g>
<defs>
<clipPath id="clip0_1_423">
<rect width="20" height="16.3281" fill="white" transform="translate(2 4)"/>
</clipPath>
</defs>
</svg>
