<svg width="171" height="31" viewBox="0 0 171 31" fill="none" xmlns="http://www.w3.org/2000/svg">
<path d="M43.2081 9.38749C46.5385 9.38749 49.2473 12.0963 49.2473 15.4267C49.2473 18.7571 46.5385 21.466 43.2081 21.466H39.0668V9.38749H43.2081ZM43.2081 5.93013H37.5097C36.4716 5.93013 35.6095 6.79001 35.6095 7.83034V23.0254C35.6095 24.0635 36.4693 24.9256 37.5097 24.9256H43.2081C48.461 24.9256 52.7047 20.6818 52.7047 15.429C52.7047 10.1761 48.461 5.93013 43.2081 5.93013Z" fill="white"/>
<path d="M69.3789 23.1991C69.3789 24.1436 68.5969 24.9255 67.6524 24.9255C66.7079 24.9255 65.926 24.1436 65.926 23.1991V18.0197C65.926 16.1039 64.3889 14.5668 62.473 14.5668C60.5572 14.5668 59.0201 16.1039 59.0201 18.0197V23.1991C59.0201 24.1436 58.2382 24.9255 57.2937 24.9255C56.3491 24.9255 55.5672 24.1436 55.5672 23.1991V7.65878C55.5672 6.71425 56.3491 5.93233 57.2937 5.93233C58.2382 5.93233 59.0201 6.71425 59.0201 7.65878V12.0562C60.0181 11.4637 61.2055 11.1117 62.473 11.1117C66.2757 11.1117 69.3789 14.2148 69.3789 18.0175V23.1991Z" fill="white"/>
<path d="M76.1778 23.1991C76.1778 24.1436 75.3958 24.9255 74.4513 24.9255C73.5068 24.9255 72.7249 24.1436 72.7249 23.1991V12.8404C72.7249 11.8958 73.5068 11.1139 74.4513 11.1139C75.3958 11.1139 76.1778 11.8958 76.1778 12.8404V23.1991Z" fill="white"/>
<path d="M98.9469 23.1991C98.9469 24.1436 98.165 24.9255 97.2204 24.9255C96.7615 24.9255 96.3294 24.7362 96.0064 24.4132L89.4503 17.8571L82.8965 24.4132C82.5734 24.7362 82.1413 24.9255 81.6824 24.9255C80.7378 24.9255 79.9559 24.1436 79.9559 23.1991V7.65878C79.9559 6.71425 80.7378 5.93233 81.6824 5.93233C82.6269 5.93233 83.4088 6.71425 83.4088 7.65878V19.0445L88.2384 14.2148C88.5615 13.8651 89.0204 13.7025 89.4525 13.7025C89.8847 13.7025 90.3436 13.8651 90.6666 14.2148L95.4962 19.0445V7.65878C95.4962 6.71425 96.2781 5.93233 97.2227 5.93233C98.1672 5.93233 98.9491 6.71425 98.9491 7.65878L98.9469 23.1991Z" fill="white"/>
<path d="M106.178 23.1991C106.178 24.1436 105.396 24.9255 104.451 24.9255C103.507 24.9255 102.725 24.1436 102.725 23.1991V12.8404C102.725 11.8958 103.507 11.1139 104.451 11.1139C105.396 11.1139 106.178 11.8958 106.178 12.8404V23.1991Z" fill="white"/>
<path d="M117.294 21.4726C117.78 21.4726 118.156 21.0961 118.156 20.6082C118.156 20.1204 117.78 19.7439 117.294 19.7439H113.841C111.466 19.7439 109.524 17.8013 109.524 15.4266C109.524 13.0519 111.466 11.1094 113.841 11.1094H119.02C119.965 11.1094 120.747 11.8913 120.747 12.8358C120.747 13.7804 119.965 14.5623 119.02 14.5623H113.841C113.355 14.5623 112.977 14.9388 112.977 15.4266C112.977 15.9145 113.353 16.291 113.841 16.291H117.294C119.669 16.291 121.609 18.2335 121.609 20.6082C121.609 22.9829 119.667 24.9255 117.294 24.9255H111.25C110.306 24.9255 109.524 24.1436 109.524 23.199C109.524 22.2545 110.306 21.4726 111.25 21.4726H117.294Z" fill="white"/>
<path d="M130.999 24.9255C127.194 24.9255 124.093 21.8224 124.093 18.0197C124.093 14.2171 127.194 11.1139 130.999 11.1139C134.801 11.1139 137.905 14.2171 137.905 18.0197C137.905 18.9643 137.123 19.7462 136.178 19.7462H128.003C128.597 20.7977 129.702 21.4726 130.997 21.4726H132.723C133.668 21.4726 134.449 22.2546 134.449 23.1991C134.449 24.1436 133.668 24.9255 132.723 24.9255H130.999ZM128.003 16.2911H133.991C133.398 15.2663 132.264 14.5646 130.997 14.5646C129.702 14.5646 128.597 15.2663 128.003 16.2911Z" fill="white"/>
<path d="M74.4513 9.81741C75.5242 9.81741 76.3939 8.9477 76.3939 7.87487C76.3939 6.80203 75.5242 5.93233 74.4513 5.93233C73.3785 5.93233 72.5088 6.80203 72.5088 7.87487C72.5088 8.9477 73.3785 9.81741 74.4513 9.81741Z" fill="white"/>
<path d="M104.451 9.81741C105.524 9.81741 106.394 8.9477 106.394 7.87487C106.394 6.80203 105.524 5.93233 104.451 5.93233C103.379 5.93233 102.509 6.80203 102.509 7.87487C102.509 8.9477 103.379 9.81741 104.451 9.81741Z" fill="white"/>
<path d="M21.5149 0H1.98041C0.886617 0 0 0.886617 0 1.98041V23.5622C0 24.3641 0.483407 25.0859 1.223 25.3911C1.96036 25.6963 2.81356 25.527 3.38162 24.9612L12.9183 15.4245C13.6913 14.6515 13.6913 13.3973 12.9183 12.6243C12.1453 11.8513 10.8911 11.8513 10.1181 12.6243L3.96082 18.7816V3.96082H21.5172C24.4822 3.96082 26.8926 6.3734 26.8926 9.33621V21.5149C26.8926 24.48 24.48 26.8903 21.5172 26.8903H12.0718L18.2291 20.733C19.0021 19.96 19.0021 18.7058 18.2291 17.9328C17.4561 17.1598 16.2019 17.1598 15.4289 17.9328L5.88999 27.4718C5.32416 28.0376 5.15485 28.8908 5.46005 29.6304C5.76747 30.37 6.48923 30.8534 7.28897 30.8534H21.5127C26.6609 30.8534 30.8489 26.6653 30.8489 21.5172V9.33844C30.8534 4.19027 26.6653 0 21.5149 0Z" fill="white"/>
<path d="M21.4325 16.712C22.5263 16.712 23.4129 15.8254 23.4129 14.7316V9.42082C23.4129 8.32703 22.5263 7.44041 21.4325 7.44041H16.1217C15.0279 7.44041 14.1413 8.32703 14.1413 9.42082C14.1413 10.5146 15.0279 11.4012 16.1217 11.4012H19.4521V14.7316C19.4521 15.8254 20.3387 16.712 21.4325 16.712Z" fill="white"/>
<path d="M143.316 24.8588C142.89 24.8588 142.658 24.6293 142.658 24.2016V17.2356C142.658 16.8079 142.888 16.5785 143.316 16.5785H146.105C146.958 16.5785 147.613 16.7767 148.105 17.1376C148.564 17.4985 148.793 18.0577 148.793 18.7148C148.793 19.176 148.662 19.5368 148.433 19.8643C148.203 20.1606 147.876 20.4235 147.481 20.5549C147.94 20.6863 148.335 20.9158 148.597 21.2455C148.86 21.5752 148.992 22.0007 148.992 22.5264C148.992 23.2816 148.729 23.8407 148.237 24.235C147.744 24.6293 147.056 24.8276 146.203 24.8276H143.316V24.8588ZM143.808 20.2252H145.906C147.022 20.2252 147.613 19.7641 147.613 18.9109C147.613 18.0242 147.056 17.5965 145.906 17.5965H143.808V20.2252ZM143.808 23.9053H146.071C147.218 23.9053 147.778 23.4442 147.778 22.5242C147.778 21.6041 147.221 21.143 146.071 21.143H143.808V23.9053Z" fill="white"/>
<path d="M150.843 24.8588C150.417 24.8588 150.186 24.6293 150.186 24.2016V17.2356C150.186 16.8079 150.415 16.5785 150.843 16.5785H155.107C155.434 16.5785 155.599 16.7433 155.599 17.0708C155.599 17.4005 155.434 17.5631 155.107 17.5631H151.366V20.1584H154.877C155.205 20.1584 155.37 20.3232 155.37 20.6507C155.37 20.9804 155.205 21.143 154.877 21.143H151.366V23.8697H155.138C155.465 23.8697 155.63 24.0345 155.63 24.362C155.63 24.6917 155.465 24.8543 155.138 24.8543C155.14 24.8588 150.843 24.8588 150.843 24.8588Z" fill="white"/>
<path d="M160.27 24.9256C159.876 24.9256 159.68 24.6961 159.68 24.3018V17.6299H157.221C156.86 17.6299 156.695 17.4651 156.695 17.1376C156.695 16.8079 156.86 16.6453 157.221 16.6453H163.387C163.748 16.6453 163.944 16.8102 163.944 17.1376C163.944 17.4985 163.779 17.6299 163.387 17.6299H160.894V24.333C160.861 24.7273 160.663 24.9256 160.27 24.9256Z" fill="white"/>
<path d="M163.623 24.9256C163.394 24.9256 163.229 24.8588 163.131 24.6961C163.033 24.5335 163.066 24.3664 163.164 24.137L166.345 17.0062C166.41 16.8413 166.51 16.7099 166.642 16.6119C166.773 16.5451 166.905 16.4804 167.036 16.4804C167.167 16.4804 167.299 16.5139 167.43 16.6119C167.562 16.6787 167.66 16.8413 167.727 17.0062L170.908 24.137C171.006 24.3664 171.039 24.5313 170.941 24.6961C170.876 24.861 170.712 24.9256 170.482 24.9256C170.317 24.9256 170.186 24.8922 170.088 24.7942C169.99 24.6961 169.892 24.5647 169.825 24.3999L169.137 22.8561H164.935L164.278 24.3999C164.213 24.5981 164.113 24.7295 164.015 24.7942C163.917 24.8922 163.786 24.9256 163.623 24.9256ZM167.003 17.9574L165.363 21.867H168.709L167.003 17.9574Z" fill="white"/>
</svg>
